<?xml version="1.0" encoding="UTF-8"?>
<svg xmlns="http://www.w3.org/2000/svg" version="1.1" viewBox="0 0 384 384">
  <!-- Generator: Adobe Illustrator 29.3.1, SVG Export Plug-In . SVG Version: 2.1.0 Build 151)  -->
  <defs>
    <style>
      .st0 {
        fill: #fafafa;
      }

      .st1, .st2 {
        opacity: .5;
      }

      .st1, .st2, .st3 {
        fill: #1a1a1a;
      }

      .st2, .st4 {
        display: none;
      }

      .st5 {
        fill: #e0e0e0;
      }

      .st6 {
        fill: #69702d;
      }

      .st7 {
        fill: none;
      }

      .st7, .st8 {
        opacity: .1;
        stroke: #595959;
        stroke-miterlimit: 10;
      }

      .st9 {
        fill: #009acd;
      }

      .st10 {
        fill: #723a1d;
      }

      .st8, .st11 {
        fill: #00a13f;
      }

      .st12 {
        fill: #794697;
      }

      .st13 {
        fill: #ea6000;
      }

      .st14 {
        fill: #a39c86;
      }

      .st15 {
        fill: #e40069;
      }

      .st16 {
        fill: #004b83;
      }
    </style>
  </defs>
  <g id="Background_사본">
    <path class="st5" d="M384,192v13.54l-.1-.02c-.24,14.5-.87,27.9-1.98,40.27-4.09,45.92-14.68,77.67-35.56,99.04-9.1,9.31-20.14,16.66-33.46,22.34-24.97,10.67-57.9,15.51-100.88,16.59-6.44.16-13.12.24-20.02.24s-13.55-.08-19.98-.24c-42.98-1.08-75.92-5.91-100.89-16.57-13.32-5.69-24.37-13.03-33.47-22.34-20.89-21.37-31.49-53.13-35.58-99.06-1.11-12.37-1.74-25.76-1.98-40.26l-.1.02v-13.55c0-33.19,1.79-61,6.16-84.2,2.8-14.97,6.68-28.02,11.85-39.36C33.34,34.67,59.98,16.02,103.41,7.03c12.17-2.53,25.66-4.3,40.59-5.43,14.59-1.1,30.55-1.6,48-1.6s33.43.5,48.03,1.61h0c14.93,1.12,28.42,2.89,40.59,5.42,43.41,9.01,70.04,27.66,85.38,61.43,5.15,11.34,9.03,24.39,11.83,39.35h0c4.37,23.21,6.16,51.01,6.16,84.19Z"/>
    <circle id="Center_of_Seoul" class="st0" cx="192" cy="192" r="176"/>
  </g>
  <g id="Foreground_사본">
    <g id="Line_사본">
      <path class="st14" d="M280.63,7.03l-43.33,119.03c-10.88-7.49-23.71-12.36-37.58-13.69L240.03,1.61h0c14.93,1.12,28.42,2.89,40.59,5.42Z"/>
      <path class="st15" d="M377.84,107.81h0s-108.75,62.79-108.75,62.79c-3.66-13.25-10.65-25.11-20-34.64l116.92-67.5c5.15,11.34,9.03,24.39,11.83,39.35Z"/>
      <path class="st6" d="M383.9,205.52c-.24,14.5-.87,27.9-1.98,40.27l-117.1-20.64c4.61-10.1,7.18-21.32,7.18-33.15,0-2.1-.08-4.19-.24-6.25l112.14,19.77Z"/>
      <path class="st10" d="M346.36,344.83c-9.1,9.31-20.14,16.66-33.46,22.34l-86.41-102.97c12.26-5.87,22.8-14.77,30.63-25.73l89.24,106.36Z"/>
      <path class="st12" d="M212.02,269.47v114.29c-6.44.16-13.12.24-20.02.24s-13.55-.08-19.98-.24v-114.28c6.38,1.65,13.08,2.52,19.98,2.52s13.62-.88,20.02-2.53Z"/>
      <path class="st9" d="M157.54,264.21l-86.41,102.98c-13.32-5.69-24.37-13.03-33.47-22.34l89.24-106.35c7.84,10.96,18.37,19.85,30.64,25.71Z"/>
      <path class="st13" d="M119.18,225.15L2.08,245.79c-1.11-12.37-1.74-25.76-1.98-40.26l112.14-19.77c-.16,2.06-.24,4.14-.24,6.24,0,11.83,2.57,23.05,7.18,33.15Z"/>
      <path class="st11" d="M134.93,135.94c-9.36,9.53-16.35,21.39-20.02,34.64L6.16,107.8c2.8-14.97,6.68-28.02,11.85-39.36l116.92,67.5Z"/>
      <path class="st16" d="M184.32,112.37c-13.87,1.32-26.7,6.18-37.59,13.67L103.41,7.03c12.17-2.53,25.66-4.3,40.59-5.43l40.32,110.77Z"/>
    </g>
    <g id="Main_x5F_Station">
      <path class="st0" d="M192,267c-41.35,0-75-33.64-75-75s33.65-75,75-75,75,33.65,75,75-33.64,75-75,75Z"/>
      <path class="st3" d="M192,122c38.6,0,70,31.4,70,70s-31.4,70-70,70-70-31.4-70-70,31.4-70,70-70M192,112c-44.18,0-80,35.82-80,80s35.82,80,80,80,80-35.82,80-80-35.82-80-80-80h0Z"/>
    </g>
  </g>
  <g id="Guide_사본">
    <g id="Circle_사본">
      <circle id="Circle_-_Large" class="st7" cx="192" cy="192" r="176"/>
      <circle id="Circle_-_Small" class="st7" cx="192" cy="192" r="80"/>
    </g>
    <g id="Vertical_Line_사본">
      <line id="Vertical_Line_-_Bottom" class="st7" x1="272" y1="0" x2="272" y2="384"/>
      <line id="Vertical_Line_-_Center" class="st7" x1="192" y1="0" x2="192" y2="384"/>
      <line id="Vertical_Line_-_Top" class="st7" x1="112" y1="0" x2="112" y2="384"/>
    </g>
    <g id="Horizontal_Line_사본">
      <line id="Horizontal_Line_-_Bottom" class="st7" x1="0" y1="272" x2="384" y2="272"/>
      <line id="Horizontal_Line_-_Center" class="st7" x1="0" y1="192" x2="384" y2="192"/>
      <line id="Horizontal_Line_-_Top" class="st8" x1="0" y1="112" x2="384" y2="112"/>
    </g>
    <g id="Rounded_Rectangle_사본">
      <rect id="Rounded_Rectangle_-_Square" class="st7" x="40.04" y="40.02" width="303.96" height="303.96" rx="20" ry="20"/>
      <rect id="Rounded_Rectangle_-_Tall" class="st7" x="64" y="16" width="256" height="352" rx="20" ry="20"/>
      <rect id="Rounded_Rectangle_-_Wide" class="st7" x="16" y="64" width="352" height="256" rx="20" ry="20"/>
    </g>
  </g>
  <g id="Mask_사본">
    <path id="Circle" class="st2" d="M601.07,384h-192v-192c0,106.04,85.96,192,192,192ZM601.07,0C707.11,0,793.07,85.96,793.07,192V0h-192ZM601.07,384h192v-192c0,106.04-85.96,192-192,192ZM601.07,0h-192v192C409.07,85.96,495.03,0,601.07,0Z"/>
    <path id="Squircle" class="st1" d="M383.9,205.52l.1.02v-13.54c0,4.61-.03,9.12-.1,13.52ZM0,192v13.55l.1-.02c-.07-4.41-.1-8.92-.1-13.53Z"/>
    <path id="Squire" class="st2" d="M494.4,384h-85.33v-85.33c0,47.13,38.2,85.33,85.33,85.33ZM494.4,0h-85.33v85.33c0-47.13,38.2-85.33,85.33-85.33ZM793.07,298.67c0,47.13-38.2,85.33-85.33,85.33h85.33v-85.33ZM793.07,85.33V0h-85.33c47.13,0,85.33,38.2,85.33,85.33Z"/>
  </g>
  <g id="Background" class="st4">
    <rect id="Outskirts_of_Seoul" class="st5" x="0" y="0" width="384" height="384" transform="translate(0 384) rotate(-90)"/>
    <circle id="Center_of_Seoul1" data-name="Center_of_Seoul" class="st0" cx="192" cy="192" r="176"/>
  </g>
  <g id="Foreground" class="st4">
    <g id="Line">
      <path id="Line_9" class="st14" d="M237.3,126.06L283.19,0h-42.57l-40.9,112.37c13.87,1.33,26.7,6.2,37.58,13.69Z"/>
      <path id="Line_8" class="st15" d="M269.09,170.6l114.91-66.34v-46.19l-134.91,77.89c9.35,9.53,16.34,21.39,20,34.64Z"/>
      <path id="Line_7" class="st6" d="M272,192c0,11.83-2.57,23.05-7.18,33.15l119.18,21.01v-40.62l-112.24-19.79c.16,2.06.24,4.15.24,6.25Z"/>
      <path id="Line_6" class="st10" d="M226.49,264.2l100.53,119.8h52.22l-122.11-145.53c-7.83,10.96-18.37,19.86-30.63,25.73Z"/>
      <path id="Line_5" class="st12" d="M192,272c-6.9,0-13.6-.87-19.98-2.52v114.52h40v-114.53c-6.4,1.65-13.11,2.53-20.02,2.53Z"/>
      <path id="Line_4" class="st9" d="M126.9,238.5L4.81,384h52.21l100.52-119.79c-12.27-5.86-22.8-14.75-30.64-25.71Z"/>
      <path id="Line_3" class="st13" d="M112,192c0-2.1.08-4.18.24-6.24L0,205.55v40.61l119.18-21.01c-4.61-10.1-7.18-21.32-7.18-33.15Z"/>
      <path id="Line_2" class="st11" d="M134.93,135.94L0,58.04v46.19l114.91,66.34c3.67-13.25,10.66-25.11,20.02-34.64Z"/>
      <path id="Line_1" class="st16" d="M184.32,112.37L143.42,0h-42.57l45.88,126.04c10.89-7.49,23.72-12.35,37.59-13.67Z"/>
    </g>
    <g id="Main_x5F_Station1" data-name="Main_x5F_Station">
      <path class="st0" d="M192,267c-41.35,0-75-33.64-75-75s33.65-75,75-75,75,33.65,75,75-33.64,75-75,75Z"/>
      <path class="st3" d="M192,122c38.6,0,70,31.4,70,70s-31.4,70-70,70-70-31.4-70-70,31.4-70,70-70M192,112c-44.18,0-80,35.82-80,80s35.82,80,80,80,80-35.82,80-80-35.82-80-80-80h0Z"/>
    </g>
  </g>
  <g id="Guide" class="st4">
    <g id="Circle1" data-name="Circle">
      <circle id="Circle_-_Large1" data-name="Circle_-_Large" class="st7" cx="192" cy="192" r="176"/>
      <circle id="Circle_-_Small1" data-name="Circle_-_Small" class="st7" cx="192" cy="192" r="80"/>
    </g>
    <g id="Vertical_Line">
      <line id="Vertical_Line_-_Bottom1" data-name="Vertical_Line_-_Bottom" class="st7" x1="272" y1="0" x2="272" y2="384"/>
      <line id="Vertical_Line_-_Center1" data-name="Vertical_Line_-_Center" class="st7" x1="192" y1="0" x2="192" y2="384"/>
      <line id="Vertical_Line_-_Top1" data-name="Vertical_Line_-_Top" class="st7" x1="112" y1="0" x2="112" y2="384"/>
    </g>
    <g id="Horizontal_Line">
      <line id="Horizontal_Line_-_Bottom1" data-name="Horizontal_Line_-_Bottom" class="st7" x1="0" y1="272" x2="384" y2="272"/>
      <line id="Horizontal_Line_-_Center1" data-name="Horizontal_Line_-_Center" class="st7" x1="0" y1="192" x2="384" y2="192"/>
      <line id="Horizontal_Line_-_Top1" data-name="Horizontal_Line_-_Top" class="st8" x1="0" y1="112" x2="384" y2="112"/>
    </g>
    <g id="Rounded_Rectangle">
      <rect id="Rounded_Rectangle_-_Square1" data-name="Rounded_Rectangle_-_Square" class="st7" x="40.04" y="40.02" width="303.96" height="303.96" rx="20" ry="20"/>
      <rect id="Rounded_Rectangle_-_Tall1" data-name="Rounded_Rectangle_-_Tall" class="st7" x="64" y="16" width="256" height="352" rx="20" ry="20"/>
      <rect id="Rounded_Rectangle_-_Wide1" data-name="Rounded_Rectangle_-_Wide" class="st7" x="16" y="64" width="352" height="256" rx="20" ry="20"/>
    </g>
  </g>
  <g id="Mask" class="st4">
    <path id="Circle2" data-name="Circle" class="st1" d="M192,384H0v-192c0,106.04,85.96,192,192,192ZM192,0C298.04,0,384,85.96,384,192V0h-192ZM192,384h192v-192c0,106.04-85.96,192-192,192ZM192,0H0v192C0,85.96,85.96,0,192,0Z"/>
    <path id="Squircle1" data-name="Squircle" class="st1" d="M192,0h192v192C384,38.4,345.6,0,192,0ZM0,192v192h192C38.4,384,0,345.6,0,192ZM192,0H0v192C0,38.4,38.4,0,192,0ZM192,384h192v-192c0,153.6-38.4,192-192,192Z"/>
    <path id="Squire1" data-name="Squire" class="st1" d="M85.33,384H0v-85.33c0,47.13,38.2,85.33,85.33,85.33ZM85.33,0H0v85.33C0,38.2,38.2,0,85.33,0ZM384,298.67c0,47.13-38.2,85.33-85.33,85.33h85.33v-85.33ZM384,85.33V0h-85.33c47.13,0,85.33,38.2,85.33,85.33Z"/>
  </g>
</svg>