<svg width="108" height="108" viewBox="0 0 108 108" fill="none" xmlns="http://www.w3.org/2000/svg">
<g clip-path="url(#clip0_32_1461)">
<mask id="mask0_32_1461" style="mask-type:luminance" maskUnits="userSpaceOnUse" x="0" y="0" width="108" height="108">
<path fill-rule="evenodd" clip-rule="evenodd" d="M54 0C10.8 0 0 10.8 0 54C0 97.2 10.8 108 54 108C97.2 108 108 97.2 108 54C108 10.8 97.2 0 54 0Z" fill="white"/>
</mask>
<g mask="url(#mask0_32_1461)">
<rect width="108" height="108" fill="#FFEECE"/>
<rect width="108" height="108" stroke="black" stroke-width="0.25" stroke-linejoin="bevel"/>
<rect width="108" height="108" stroke="black" stroke-width="0.25" stroke-linejoin="bevel"/>
<rect width="108" height="108" fill="#FDEFF0"/>
<path d="M54 18C34.1182 18 18 34.1182 18 54C18 73.8818 34.1182 90 54 90C73.8818 90 90 73.8818 90 54C90 34.1182 73.8818 18 54 18ZM70.3964 70.3636H64.9473V48.0927L56.3564 70.3636H51.7255L43.1345 48.2236V70.3636H37.6854V37.6364H45.0491L54.0491 61.3636L62.9509 37.6364H70.4127V70.3636H70.3964Z" fill="#00856E"/>
</g>
</g>
<defs>
<clipPath id="clip0_32_1461">
<rect width="108" height="108" fill="white"/>
</clipPath>
</defs>
</svg>
